<?xml version="1.0" standalone="no"?>
<!DOCTYPE svg PUBLIC "-//W3C//DTD SVG 20010904//EN"
 "http://www.w3.org/TR/2001/REC-SVG-20010904/DTD/svg10.dtd">
<svg version="1.0" xmlns="http://www.w3.org/2000/svg"
 width="878.000000pt" height="878.000000pt" viewBox="0 0 878.000000 878.000000"
 preserveAspectRatio="xMidYMid meet">
<metadata>
Created by potrace 1.14, written by Peter Selinger 2001-2017
</metadata>
<g transform="translate(0.000000,878.000000) scale(0.100000,-0.100000)"
fill="#000000" stroke="none">
<path d="M4345 8769 c8 -12 -6 -39 -21 -39 -8 0 -19 -11 -24 -25 -6 -15 -17
-25 -30 -25 -15 0 -20 -7 -20 -25 0 -20 -5 -25 -24 -25 -18 0 -26 -6 -28 -22
-2 -17 -9 -22 -26 -20 -16 1 -22 -2 -19 -10 7 -20 -13 -50 -29 -44 -10 4 -16
-4 -21 -25 -4 -23 -10 -29 -27 -27 -16 2 -21 -2 -21 -21 0 -14 -8 -27 -18 -30
-10 -4 -18 -11 -18 -16 0 -14 -30 -45 -43 -45 -6 0 -17 -9 -24 -21 -10 -15
-10 -19 -1 -14 8 5 10 4 5 -3 -4 -7 -13 -12 -19 -12 -11 0 -42 -39 -39 -50 0
-3 -10 -11 -24 -18 -18 -9 -24 -19 -19 -30 3 -9 3 -13 -1 -10 -10 11 -44 -11
-44 -28 0 -8 -11 -20 -25 -26 -22 -10 -30 -26 -26 -50 0 -5 -2 -7 -7 -7 -20 3
-30 -3 -40 -26 -6 -14 -18 -25 -25 -25 -8 0 -19 -11 -25 -25 -6 -14 -18 -25
-26 -25 -7 0 -17 -11 -20 -25 -4 -16 -13 -25 -26 -25 -17 0 -25 -15 -21 -42 0
-3 -10 -5 -22 -4 -17 2 -23 -3 -24 -17 -2 -24 -6 -28 -30 -31 -10 -2 -18 -10
-18 -19 0 -8 -4 -19 -8 -24 -5 -4 -16 -8 -24 -8 -9 0 -17 -9 -19 -19 -3 -21
-23 -38 -36 -30 -4 3 -8 -4 -8 -15 0 -21 -32 -46 -44 -34 -3 3 -6 -3 -6 -14 0
-28 -23 -46 -38 -31 -7 7 -12 8 -13 3 -4 -47 -8 -60 -18 -63 -6 -2 -18 -10
-25 -18 -8 -8 -20 -14 -26 -14 -16 0 -42 -28 -36 -39 8 -12 -20 -22 -39 -14
-9 3 -14 10 -12 17 5 16 -18 35 -39 32 -25 -4 -54 11 -54 29 0 7 -12 15 -27
17 -19 2 -29 10 -33 26 -3 13 -8 23 -12 23 -37 -3 -48 1 -48 17 0 13 -13 24
-40 35 -22 8 -40 22 -40 29 0 8 -10 14 -22 15 -25 2 -39 20 -31 40 4 10 -1 13
-21 9 -21 -4 -29 0 -38 20 -6 13 -18 24 -27 24 -20 1 -51 24 -51 39 0 9 -20
16 -42 12 -10 -1 -21 37 -14 48 3 5 -8 8 -26 7 -25 -1 -35 5 -45 24 -7 14 -13
22 -13 17 0 -4 -13 -1 -30 8 -16 8 -29 21 -27 27 1 7 -9 12 -23 13 -19 0 -26
6 -28 26 -3 22 -7 25 -28 21 -20 -4 -27 1 -36 26 -9 22 -18 30 -36 30 -26 0
-56 28 -46 43 2 5 -9 3 -26 -2 -16 -6 -30 -15 -30 -21 0 -5 -4 -7 -9 -4 -20
13 -34 -23 -23 -63 14 -56 3 -131 -19 -131 -14 0 -39 -26 -39 -39 0 -6 4 -11
8 -11 7 0 7 -63 0 -138 -1 -7 -8 -10 -16 -7 -19 7 -43 -25 -32 -45 7 -14 6
-121 -3 -164 -2 -11 -12 -23 -23 -26 -16 -6 -19 -18 -20 -86 -1 -88 -11 -135
-25 -113 -16 26 -23 -3 -24 -97 0 -85 -2 -95 -17 -90 -16 4 -23 -5 -19 -26 0
-5 -3 -8 -7 -8 -5 0 -7 -33 -6 -72 3 -92 -4 -126 -26 -133 -14 -4 -17 -19 -19
-78 -5 -119 -4 -117 -27 -117 -19 0 -21 -6 -21 -74 -1 -80 -6 -96 -29 -96 -8
0 -14 -5 -14 -11 0 -13 -41 -48 -57 -49 -6 0 -13 -8 -15 -17 -2 -9 -12 -17
-24 -18 -16 -1 -20 3 -16 17 3 12 -1 18 -11 18 -9 0 -20 8 -25 17 -9 15 -11
15 -26 1 -13 -14 -39 -15 -173 -12 -87 3 -164 5 -170 6 -7 1 -13 11 -13 22 0
20 -5 21 -162 22 -209 1 -241 4 -226 21 14 17 -19 46 -42 36 -8 -3 -58 -8
-110 -11 -52 -2 -96 -5 -98 -7 -2 -2 -5 -29 -6 -61 -3 -66 7 -96 29 -88 16 7
17 5 20 -71 4 -74 4 -75 19 -75 8 0 18 -5 22 -11 11 -18 13 -91 3 -117 -10
-26 12 -58 34 -49 15 6 19 -16 19 -96 0 -53 2 -58 19 -54 11 3 17 1 14 -3 -3
-5 0 -10 7 -12 7 -3 12 -28 12 -72 0 -61 1 -67 19 -62 10 2 16 2 13 -1 -3 -4
-2 -11 3 -17 6 -7 11 -40 12 -74 2 -51 5 -62 20 -62 23 0 27 -14 25 -98 -2
-39 1 -72 6 -72 4 0 7 -3 7 -7 -3 -21 3 -24 18 -12 10 8 14 9 10 2 -4 -6 -3
-14 2 -17 5 -4 9 -30 9 -59 0 -76 0 -74 25 -81 18 -4 23 -13 24 -41 1 -19 3
-51 3 -70 2 -26 6 -35 19 -35 10 0 18 -6 19 -12 0 -7 3 -33 6 -57 3 -24 1 -53
-5 -63 -7 -14 -6 -20 6 -24 8 -3 12 -11 9 -16 -4 -6 2 -7 17 -3 13 4 21 4 17
0 -4 -4 -3 -17 1 -29 11 -28 -4 -67 -22 -60 -10 3 -20 -6 -28 -25 -8 -17 -17
-32 -21 -32 -28 -5 -34 -4 -44 3 -15 11 -38 -17 -30 -37 3 -9 -1 -16 -9 -16
-8 -1 -25 -2 -37 -3 -13 -1 -29 2 -36 8 -16 11 -35 -11 -27 -32 6 -17 -32 -30
-72 -25 -30 4 -33 2 -33 -21 0 -17 -6 -25 -17 -25 -10 0 -32 -1 -48 -2 -22 0
-34 -7 -40 -22 -9 -19 -18 -22 -65 -22 -30 0 -61 -5 -67 -12 -15 -14 -17 -27
-3 -18 6 3 10 2 10 -3 0 -15 -26 -22 -76 -22 -40 0 -45 -2 -39 -19 5 -16 0
-21 -27 -26 -19 -4 -38 -6 -43 -5 -25 5 -37 -1 -31 -15 11 -30 -78 -42 -95
-13 -4 7 -11 2 -18 -11 -7 -12 -9 -25 -6 -30 5 -9 -18 -20 -54 -26 -9 -1 -22
2 -29 8 -14 11 -32 -5 -32 -30 0 -7 -9 -17 -20 -23 -11 -6 -20 -18 -20 -27 0
-9 2 -14 6 -11 3 3 30 -19 60 -48 30 -30 58 -54 63 -54 4 0 14 -11 21 -25 7
-13 17 -22 21 -19 5 3 18 -10 29 -28 11 -18 22 -32 25 -30 14 6 24 0 30 -18 3
-11 15 -20 25 -20 9 0 20 -9 23 -21 3 -11 14 -23 25 -26 11 -3 23 -16 26 -29
4 -14 11 -22 15 -19 14 8 43 -25 37 -42 -4 -11 -1 -13 14 -8 15 5 22 0 30 -19
6 -16 17 -26 30 -26 18 0 25 -15 21 -42 0 -5 10 -8 24 -8 20 0 25 -5 25 -26 0
-14 4 -23 9 -20 18 11 41 -6 41 -31 0 -20 4 -23 20 -18 11 3 20 3 21 -2 3 -43
10 -68 20 -77 9 -8 10 -8 5 2 -9 16 1 32 18 26 7 -3 12 -15 11 -27 -3 -30 4
-40 20 -27 11 9 19 6 36 -14 13 -14 29 -26 36 -26 7 0 13 -7 13 -15 0 -8 12
-22 28 -32 15 -10 35 -28 45 -41 10 -12 22 -20 25 -18 4 2 13 -2 20 -10 7 -8
10 -14 7 -14 -4 0 0 -7 9 -15 8 -8 22 -15 30 -15 9 0 15 -3 15 -7 -4 -22 3
-33 19 -33 11 0 24 -12 31 -26 6 -15 14 -24 18 -21 7 8 27 -12 36 -35 3 -10
15 -18 26 -18 13 0 21 -8 23 -22 2 -14 10 -23 21 -23 10 0 23 -11 31 -25 7
-14 17 -24 23 -23 5 1 15 -14 22 -33 8 -22 18 -34 26 -30 16 6 29 -21 14 -29
-5 -4 -6 -12 -3 -18 5 -9 4 -9 -6 0 -10 9 -17 7 -34 -8 -13 -12 -17 -23 -11
-27 6 -4 10 -13 9 -19 -1 -7 -2 -20 -3 -28 0 -8 -7 -12 -15 -9 -9 3 -17 -3
-21 -18 -12 -36 -26 -50 -40 -38 -9 8 -13 4 -12 -17 0 -16 -10 -34 -24 -46
-13 -10 -24 -25 -25 -34 -5 -29 -14 -43 -29 -43 -8 0 -15 -9 -15 -20 0 -20
-32 -44 -44 -33 -3 3 -6 -8 -6 -25 0 -25 -5 -33 -25 -38 -23 -6 -29 -19 -28
-61 1 -12 -2 -14 -29 -17 -7 0 -15 -12 -18 -26 -4 -18 -13 -25 -28 -24 -16 0
-22 -5 -22 -22 0 -33 -10 -54 -26 -54 -8 0 -17 -14 -21 -31 -3 -19 -14 -34
-25 -36 -10 -3 -19 -9 -19 -14 -1 -5 -2 -13 -3 -18 -2 -15 -16 -26 -34 -26
-12 0 -17 -8 -17 -25 1 -15 -8 -31 -22 -41 -13 -8 -20 -19 -16 -22 3 -4 1 -7
-5 -7 -6 0 -9 -9 -7 -20 3 -18 -8 -25 -36 -22 -4 1 -7 -10 -7 -24 0 -14 -7
-31 -17 -38 -15 -11 -16 -16 -5 -36 11 -21 13 -22 22 -6 15 26 143 21 163 -7
8 -11 12 -24 9 -29 -3 -4 2 -8 10 -8 8 0 17 4 20 8 3 5 33 7 68 5 90 -5 88 -4
88 -27 0 -12 5 -28 10 -36 9 -13 11 -13 20 1 7 13 24 16 82 13 40 -1 76 -3 81
-3 4 -1 7 -10 7 -21 0 -11 6 -20 14 -20 8 0 16 -5 18 -11 2 -7 12 -7 28 -1 20
7 111 7 168 0 6 -1 12 -11 12 -22 0 -20 5 -21 91 -21 50 0 93 -3 96 -8 2 -4
10 -4 16 -1 8 5 8 3 -1 -7 -15 -16 -16 -29 -1 -29 7 0 18 -8 26 -17 8 -10 12
-13 8 -6 -13 26 135 29 159 3 8 -10 8 -11 -1 -6 -17 9 -16 -4 2 -28 12 -16 16
-16 28 -4 13 13 83 15 140 5 17 -3 47 -27 34 -27 -4 0 -3 -9 3 -21 9 -16 14
-18 26 -9 8 7 41 12 79 11 113 -3 115 -4 115 -24 0 -11 11 -32 25 -49 14 -16
25 -38 25 -49 0 -10 6 -19 14 -19 11 0 13 -30 12 -161 -1 -160 -1 -162 -25
-170 -15 -6 -21 -14 -17 -25 3 -8 2 -12 -4 -9 -14 9 -24 -43 -11 -59 12 -14 9
-365 -4 -385 -3 -6 -13 -11 -21 -11 -8 0 -13 -4 -10 -9 4 -5 2 -11 -2 -13 -5
-1 -7 -58 -4 -125 l4 -121 27 6 c14 4 54 6 89 6 34 -1 62 3 62 7 0 5 6 8 13 7
6 -2 11 5 9 15 -2 9 -2 17 0 17 2 1 21 3 42 6 30 5 43 2 51 -10 11 -14 14 -14
34 3 12 10 20 25 19 32 -4 17 37 26 95 22 37 -3 47 -1 47 11 0 21 27 34 89 41
41 4 58 2 71 -10 16 -15 18 -14 25 2 5 10 9 24 9 32 1 14 38 29 64 25 6 -1 24
-2 38 -3 14 0 22 -5 19 -11 -3 -6 -2 -10 2 -10 12 0 34 40 28 50 -11 18 61 28
114 16 18 -5 31 -4 29 0 -3 5 -2 18 2 28 5 15 18 20 59 23 29 1 61 -1 70 -6
11 -6 23 -3 39 9 13 11 23 21 22 24 -1 20 3 23 25 21 14 -2 27 0 30 5 6 9 44
2 62 -12 8 -7 18 -5 28 5 18 19 20 41 3 31 -10 -5 -10 -3 0 7 9 9 35 14 78 14
59 0 65 2 71 22 5 24 9 25 88 27 42 1 50 4 47 19 -2 9 3 17 10 18 7 0 25 2 40
4 19 2 25 0 22 -10 -6 -16 38 -65 59 -65 8 0 15 -6 14 -13 -2 -52 5 -73 26
-82 19 -8 22 -18 22 -60 0 -44 3 -50 23 -53 22 -3 23 -7 26 -77 1 -22 5 -29
17 -27 17 2 44 -50 32 -62 -9 -8 7 -57 16 -52 16 10 32 -22 34 -63 1 -32 5
-41 19 -41 21 0 33 -39 24 -75 -8 -31 13 -68 30 -54 15 12 22 -8 26 -68 1 -33
6 -43 19 -43 19 0 27 -18 31 -68 2 -22 7 -32 19 -32 27 0 33 -44 13 -94 -5
-14 -4 -17 4 -12 7 4 12 2 12 -3 0 -6 9 -11 21 -11 11 0 18 -3 16 -8 -3 -4 4
-16 14 -26 17 -17 19 -18 25 -2 4 9 4 19 1 22 -8 8 16 33 26 27 4 -2 11 7 16
21 6 13 19 27 31 31 11 3 18 10 15 15 -3 5 8 19 24 31 17 12 28 25 26 30 -3 4
2 10 11 13 9 3 12 11 8 18 -4 7 -4 10 1 6 10 -10 47 11 40 22 -6 9 33 50 47
50 4 0 7 3 7 7 -3 21 3 33 16 33 9 0 20 11 25 25 6 16 17 25 30 25 12 0 20 6
19 12 -3 28 2 36 26 42 16 4 25 13 23 23 -2 9 5 17 16 19 20 3 36 21 36 42 0
6 9 12 19 12 13 0 21 8 23 23 2 14 11 23 26 25 14 2 22 10 22 23 0 12 10 23
25 29 15 6 25 17 25 30 0 15 7 20 24 20 18 0 25 6 28 23 2 15 9 21 21 19 9 -2
18 2 18 8 1 5 2 15 3 20 1 13 28 30 37 24 4 -2 10 7 13 20 4 15 15 26 29 28
12 2 22 10 23 18 2 33 5 38 25 43 12 3 18 10 15 16 -3 5 8 19 24 31 17 12 29
25 26 28 -6 6 33 42 46 42 4 0 8 6 8 14 0 8 11 24 26 35 14 11 26 23 26 28 3
14 23 31 31 26 4 -2 11 7 17 21 5 14 18 30 30 36 11 6 18 15 15 20 -7 11 30
32 39 23 4 -4 9 3 13 15 3 12 18 28 34 36 16 8 26 10 23 4 -4 -7 -2 -8 5 -4 6
4 9 16 6 25 -3 11 0 18 8 18 7 0 13 -10 13 -21 -1 -16 5 -21 24 -22 51 -1 53
-3 40 -19 -10 -12 -9 -16 2 -20 8 -3 19 -5 24 -4 23 4 35 -3 46 -26 8 -18 19
-25 39 -25 27 0 45 -22 33 -42 -3 -5 2 -9 12 -8 33 4 45 0 43 -12 -3 -29 2
-49 11 -43 15 9 70 -5 67 -17 -1 -6 13 -15 31 -20 29 -8 37 -17 33 -40 -1 -7
22 -12 42 -9 4 0 7 -2 8 -6 0 -5 2 -18 3 -31 2 -12 8 -28 15 -35 10 -9 12 -9
9 3 -5 24 45 20 59 -4 6 -12 21 -23 33 -26 12 -3 21 -9 21 -15 1 -17 21 -35
40 -35 15 0 19 -7 19 -31 0 -22 4 -28 13 -22 18 11 36 12 43 2 3 -5 10 -7 15
-3 5 3 9 2 8 -3 -5 -29 3 -40 29 -39 22 1 28 -4 30 -26 2 -18 8 -25 17 -22 18
7 55 -13 55 -30 0 -14 30 -26 68 -26 13 0 21 -4 17 -9 -3 -5 -1 -12 4 -16 17
-10 32 34 26 77 -9 58 3 142 19 129 17 -15 36 21 30 56 -5 26 -7 76 -5 116 1
10 9 21 19 24 34 13 44 32 35 61 -8 24 -9 42 -4 111 0 11 13 26 29 33 19 10
26 20 23 33 -16 81 1 203 27 198 17 -4 34 34 24 55 -17 34 -2 149 18 137 16
-10 38 39 28 65 -9 25 -5 123 7 153 4 9 13 17 19 17 9 0 14 21 15 64 3 106 12
139 35 130 11 -4 14 10 14 65 0 100 8 128 39 136 16 4 29 17 36 36 14 36 30
41 132 35 44 -2 93 -4 109 -5 24 -1 27 -3 16 -16 -11 -13 -8 -16 19 -21 17 -4
31 -10 31 -15 0 -12 47 -11 55 1 7 12 339 7 368 -5 9 -4 17 -13 17 -21 0 -8 3
-14 8 -15 26 -3 369 -4 378 -2 6 2 10 20 8 40 -1 20 2 48 8 62 6 17 6 27 -1
29 -6 2 -11 10 -11 17 0 7 -11 16 -24 19 -23 6 -24 10 -22 71 2 57 0 65 -15
65 -10 0 -20 4 -23 8 -10 17 -14 116 -6 133 11 19 -12 45 -29 35 -14 -9 -24
30 -25 99 -1 38 -6 60 -13 60 -25 0 -35 25 -34 90 0 62 -1 67 -19 62 -18 -5
-26 7 -21 36 0 4 -2 7 -7 7 -4 0 -6 19 -4 42 4 34 0 44 -19 59 -21 15 -24 27
-26 94 -2 91 -6 105 -30 105 -16 0 -19 10 -21 67 -3 63 -15 89 -34 77 -5 -3
-8 -2 -7 3 1 4 0 10 -1 13 -1 3 -3 29 -4 59 -2 41 -7 57 -24 70 -16 12 -22 30
-25 68 -2 29 0 56 6 62 13 13 -9 41 -33 41 -22 0 -19 41 4 50 10 3 17 8 16 10
-4 15 16 43 36 50 16 6 22 15 18 25 -4 9 0 16 7 16 8 1 25 3 39 4 14 1 28 -2
33 -9 10 -14 40 23 33 41 -3 7 2 14 12 15 58 5 72 4 72 -5 0 -5 7 -4 15 3 9 7
14 19 11 27 -7 18 38 35 76 29 22 -3 28 0 28 14 0 27 27 39 66 30 34 -8 56 3
48 24 -9 22 39 35 74 20 31 -13 32 -12 40 19 8 30 11 32 53 32 33 0 47 5 56
20 6 11 9 23 7 27 -2 4 23 6 55 5 57 -2 60 -1 63 23 2 20 9 25 33 26 17 0 35
-3 41 -8 14 -10 39 17 29 32 -10 17 46 33 73 21 18 -9 24 -8 28 4 4 8 2 21 -4
28 -6 6 -12 21 -14 32 -1 11 -12 22 -23 25 -10 3 -22 15 -25 26 -3 13 -12 20
-23 18 -13 -2 -20 6 -24 27 -3 16 -11 29 -17 28 -26 -3 -36 2 -36 20 0 13 -8
21 -22 23 -15 2 -24 11 -26 26 -2 14 -10 22 -22 22 -10 0 -22 9 -25 21 -4 11
-18 24 -31 29 -15 6 -24 16 -22 27 2 11 -6 19 -22 23 -16 4 -25 13 -25 25 0
11 -7 20 -15 21 -34 2 -37 5 -35 29 3 22 0 24 -21 19 -21 -6 -24 -3 -24 24 0
24 -4 29 -18 25 -13 -3 -35 12 -69 46 -28 28 -56 51 -63 51 -6 0 -9 3 -7 8 3
4 -10 18 -29 32 -18 14 -34 30 -34 36 0 11 -49 39 -62 36 -4 -1 -5 5 -2 12 6
15 -29 40 -40 29 -3 -3 -7 -1 -7 5 -1 7 -2 18 -3 25 0 6 -11 13 -23 15 -13 2
-23 10 -23 17 0 8 -14 22 -31 30 -19 11 -29 22 -25 31 4 10 -2 14 -18 14 -17
0 -26 7 -30 25 -4 14 -13 25 -21 25 -9 0 -20 11 -27 25 -6 13 -14 23 -17 20
-11 -6 -32 10 -34 26 -2 8 -7 16 -12 17 -23 9 -45 23 -44 30 3 20 -3 30 -18
28 -11 0 -19 8 -23 24 -4 18 -12 25 -30 25 -18 1 -24 5 -22 18 5 32 -44 97
-74 97 -9 0 -14 6 -11 13 2 6 10 12 18 12 8 0 15 12 17 28 3 26 33 53 46 40 3
-3 6 7 6 24 0 25 5 32 25 37 14 4 23 11 20 16 -8 13 16 60 31 60 6 0 17 14 23
31 7 20 16 29 28 27 12 -2 19 4 21 22 1 14 3 30 4 37 1 7 4 10 7 8 12 -7 37
20 36 40 0 11 10 24 23 30 12 5 22 17 22 25 0 22 20 40 36 33 10 -4 14 3 14
22 0 27 23 59 34 48 6 -6 16 14 20 41 3 19 14 31 29 31 6 0 14 11 17 25 4 18
13 25 28 24 15 0 22 5 20 15 -3 26 12 61 27 61 7 0 16 14 20 31 4 19 15 33 26
36 10 3 20 9 20 14 1 5 3 14 4 19 1 6 3 15 4 20 1 7 7 7 20 1 14 -8 22 -7 31
4 7 8 8 15 3 15 -5 0 -8 14 -5 30 3 18 0 30 -7 30 -6 0 -16 11 -21 25 -5 14
-16 25 -24 25 -8 0 -16 5 -18 11 -2 7 -12 7 -32 -1 -26 -10 -151 -9 -161 2 -2
2 -6 15 -8 28 -4 24 -27 41 -27 20 0 -8 -22 -11 -67 -9 -83 3 -112 14 -106 40
4 13 0 19 -10 19 -9 0 -18 -3 -21 -8 -2 -4 -31 -7 -63 -6 -94 2 -93 2 -93 28
0 29 -16 42 -33 28 -10 -7 -85 -9 -154 -3 -7 1 -13 10 -13 21 0 11 -6 20 -14
20 -8 0 -16 5 -18 11 -3 8 -10 9 -23 2 -22 -11 -140 -10 -167 2 -10 4 -18 15
-18 26 0 16 -8 18 -57 17 -32 -1 -78 -1 -102 0 -37 2 -42 4 -31 17 8 10 9 15
2 15 -6 0 -20 9 -30 21 -17 18 -20 18 -26 4 -9 -23 -142 -18 -139 5 1 8 -6 26
-17 40 -16 20 -20 22 -20 8 0 -20 -4 -21 -68 -19 -49 1 -65 8 -59 24 2 7 -2
18 -10 25 -7 7 -13 25 -14 40 l0 27 -11 -25 -10 -25 -8 28 c-9 31 -5 311 5
326 3 6 12 8 20 4 17 -6 16 -16 19 182 3 205 3 202 27 208 12 3 18 10 14 16
-3 6 0 14 8 17 15 5 17 20 5 39 -3 6 -5 79 -4 164 2 146 1 153 -18 161 -12 4
-24 6 -28 3 -5 -2 -8 1 -8 6 0 17 -30 13 -36 -4 -4 -8 -11 -12 -17 -8 -6 4 -8
0 -4 -10 9 -24 -19 -34 -85 -31 -51 2 -58 0 -58 -16 0 -10 -8 -21 -17 -25 -27
-11 -143 -14 -143 -4 0 21 -19 7 -29 -21 -7 -21 -17 -30 -33 -31 -54 -4 -81 0
-89 13 -7 11 -11 10 -19 -2 -6 -8 -8 -23 -6 -32 5 -21 -35 -31 -102 -26 -42 3
-47 1 -50 -19 -2 -15 -13 -24 -32 -28 -39 -8 -93 -3 -103 10 -5 6 -12 4 -20
-6 -6 -9 -16 -16 -20 -17 -14 -1 -22 -12 -9 -12 6 0 9 -6 6 -13 -7 -18 -130
-18 -127 1 5 22 -15 13 -23 -10 -4 -13 -7 -25 -6 -28 2 -18 -26 -27 -83 -26
-60 1 -65 -1 -65 -20 0 -23 0 -23 -84 -27 -47 -3 -61 -8 -66 -22 -4 -10 -15
-20 -26 -22 -45 -9 -90 -9 -101 -1 -15 12 -53 -7 -53 -27 0 -14 -22 -23 -65
-26 -43 -3 -54 2 -67 29 -7 15 -23 28 -36 30 -14 2 -23 11 -24 25 -1 12 -3 31
-4 42 -1 11 -2 26 -3 33 -1 6 -10 12 -21 12 -21 0 -22 2 -24 58 -2 31 -21 56
-36 47 -5 -3 -8 11 -12 50 -1 6 2 20 6 31 5 18 1 24 -24 32 -23 9 -30 17 -31
39 -2 67 -5 78 -16 76 -17 -4 -32 27 -35 71 -1 27 -7 36 -20 36 -19 0 -34 55
-25 90 3 11 1 20 -5 20 -5 0 -6 5 -2 12 5 8 2 9 -9 5 -21 -8 -41 26 -34 58 5
27 0 36 -28 51 -11 6 -21 21 -21 33 -1 11 -2 32 -3 46 0 15 -7 25 -16 25 -23
0 -35 33 -25 69 6 21 5 33 -3 38 -16 10 -88 12 -82 2z m-246 -1506 c-1 -10 2
-45 6 -78 3 -33 8 -87 10 -120 2 -33 7 -95 11 -137 6 -77 6 -78 -17 -79 -13 0
-32 -2 -41 -4 -10 -2 -43 -6 -74 -9 -30 -3 -58 -7 -62 -10 -4 -2 -28 -7 -55
-10 -26 -4 -58 -11 -72 -16 -14 -5 -25 -7 -25 -4 0 4 -6 2 -13 -4 -7 -6 -17
-8 -23 -4 -10 7 -50 144 -59 205 -2 15 -6 31 -9 36 -3 4 -8 21 -11 37 -3 16
-11 53 -19 82 -15 57 -16 57 34 66 14 3 44 10 68 16 23 5 59 13 80 16 20 3 44
7 52 9 8 2 47 7 85 11 39 3 72 8 74 10 2 2 17 4 32 4 20 0 28 -5 28 -17z m641
0 c19 -3 51 -7 70 -8 19 -2 35 -4 35 -5 0 -1 7 -3 15 -5 8 -1 40 -8 71 -14 30
-6 68 -14 84 -17 41 -7 45 -12 35 -40 -6 -14 -12 -37 -15 -52 -7 -38 -54 -222
-59 -230 -2 -4 -7 -25 -10 -47 -9 -54 -16 -59 -73 -46 -26 6 -59 13 -73 15
-14 2 -36 7 -50 10 -14 3 -47 8 -75 11 -91 11 -130 16 -132 19 -7 7 -5 47 12
236 7 78 11 124 14 173 1 16 8 17 59 12 31 -3 73 -9 92 -12z m-1492 -411 c45
-103 82 -192 82 -197 0 -6 -33 -25 -73 -44 -39 -18 -110 -56 -155 -82 -46 -27
-88 -49 -93 -49 -5 0 -9 -4 -9 -10 0 -29 -28 6 -134 167 -89 136 -113 179
-105 190 6 7 18 13 25 13 8 0 14 5 14 10 0 6 4 10 9 10 5 0 39 18 76 41 59 35
261 137 275 138 3 1 42 -84 88 -187z m2363 148 c43 -22 79 -37 79 -34 0 3 7
-2 16 -10 8 -9 20 -14 25 -11 5 4 9 2 9 -3 0 -5 12 -15 28 -23 88 -45 171
-102 165 -112 -82 -135 -228 -341 -240 -339 -8 2 -38 18 -67 35 -28 18 -60 37
-71 44 -37 22 -186 93 -197 93 -5 0 -8 6 -5 13 28 69 171 387 174 387 3 0 40
-18 84 -40z m-3223 -519 c15 -15 70 -75 122 -131 52 -57 105 -113 117 -126
l22 -22 -82 -84 c-83 -86 -169 -183 -175 -199 -7 -18 -26 -7 -117 64 -51 39
-104 81 -119 92 -15 11 -37 28 -49 39 -12 10 -32 25 -44 33 -14 9 -20 20 -15
28 27 48 287 332 305 334 5 1 21 -12 35 -28z m4053 -79 c57 -59 127 -137 155
-173 l51 -65 -163 -127 c-90 -70 -168 -127 -173 -127 -5 0 -26 21 -47 48 -52
63 -48 59 -143 156 l-84 85 54 58 c30 31 72 76 94 100 22 23 62 67 90 98 27
30 52 55 56 55 3 0 53 -49 110 -108z m-4644 -664 c15 -7 30 -15 33 -18 3 -3
25 -15 50 -28 25 -12 79 -41 120 -63 41 -23 91 -50 111 -60 l36 -20 -33 -62
c-18 -34 -54 -114 -79 -177 -26 -63 -49 -118 -51 -122 -2 -3 -27 3 -55 13 -27
11 -54 17 -60 14 -5 -4 -9 -2 -9 2 0 7 -103 46 -155 59 -18 5 -117 43 -122 47
-9 10 170 427 183 427 2 0 16 -6 31 -12z m5166 -73 c36 -71 107 -232 111 -250
1 -5 8 -20 14 -32 7 -13 10 -23 7 -23 -3 0 -1 -9 5 -20 9 -17 8 -21 -7 -26
-10 -3 -27 -10 -38 -14 -22 -9 -285 -98 -326 -110 -26 -8 -27 -5 -64 89 -21
53 -57 135 -81 183 l-43 87 162 87 c89 48 173 93 187 101 30 15 29 16 73 -72z
m-5399 -840 c21 -3 48 -8 60 -11 12 -3 35 -7 51 -9 17 -2 30 -4 30 -5 0 -1 18
-3 40 -6 79 -10 90 -12 95 -14 3 -1 12 -3 20 -4 16 -1 17 -19 7 -101 -4 -27
-9 -97 -12 -155 -9 -167 19 -148 -226 -148 l-212 -1 7 137 c7 134 10 171 21
262 9 69 11 72 47 66 18 -3 51 -8 72 -11z m5667 3 c0 -7 2 -22 5 -33 2 -11 6
-42 9 -70 3 -27 8 -66 10 -85 2 -20 7 -88 10 -152 l6 -117 -211 1 c-115 0
-212 3 -215 8 -2 4 -7 54 -10 111 -3 57 -8 122 -11 144 -4 22 -7 62 -8 89 -1
42 2 49 19 52 38 7 110 17 125 18 9 1 20 4 25 7 6 3 28 7 49 8 22 1 42 4 46 6
3 2 29 7 56 11 27 3 51 8 53 10 10 9 41 3 42 -8z m-5347 -895 c3 -10 8 -36 12
-58 3 -22 8 -43 10 -46 2 -3 6 -19 8 -36 6 -30 49 -184 61 -214 7 -19 17 -15
-175 -80 -80 -27 -152 -52 -160 -56 -8 -3 -19 -7 -25 -8 -5 -2 -17 -4 -25 -6
-11 -3 -22 19 -43 81 -15 46 -30 96 -33 110 -6 31 -9 40 -17 65 -3 11 -8 36
-11 55 -4 19 -10 51 -14 70 -12 51 -9 75 8 76 17 0 102 13 133 20 12 3 42 7
66 10 24 2 47 7 52 10 4 2 32 7 61 10 29 3 55 8 57 10 10 10 30 2 35 -13z
m5002 2 c22 -3 64 -10 94 -15 30 -5 71 -12 90 -15 19 -3 49 -8 65 -12 17 -3
44 -7 60 -8 23 -2 29 -6 28 -21 -6 -42 -14 -90 -19 -104 -3 -8 -7 -33 -10 -55
-5 -42 -68 -251 -83 -274 -6 -8 -14 -10 -22 -5 -8 5 -22 10 -32 11 -10 2 -31
10 -46 18 -16 8 -39 16 -52 19 -13 2 -51 14 -84 26 -33 12 -64 23 -70 24 -5 1
-15 5 -21 8 -6 4 -23 9 -38 12 -39 7 -42 12 -28 49 16 45 72 269 72 289 0 9 5
29 10 43 7 20 15 25 29 20 10 -3 36 -8 57 -10z m-4718 -795 c24 -44 131 -207
169 -258 l32 -44 -27 -23 c-84 -70 -306 -235 -313 -233 -17 7 -130 171 -216
315 l-43 73 63 32 c34 18 76 39 92 47 17 8 32 18 35 21 3 3 28 16 55 30 28 14
52 27 55 30 8 8 64 38 73 39 4 1 16 -13 25 -29z m4425 1 c29 -15 108 -59 177
-96 69 -37 129 -71 133 -75 16 -14 -218 -377 -249 -387 -9 -3 -92 56 -132 94
-7 7 -16 13 -20 13 -4 0 -20 12 -37 28 -16 15 -56 47 -87 71 -32 24 -58 45
-58 48 0 2 27 42 59 88 33 45 81 119 108 164 26 44 49 81 51 81 2 0 26 -13 55
-29z m-3883 -661 c66 -59 71 -62 114 -94 22 -16 45 -33 51 -38 5 -5 29 -22 53
-39 26 -18 40 -34 36 -42 -4 -7 -56 -87 -117 -179 -72 -111 -113 -165 -121
-160 -86 52 -356 267 -356 281 0 7 28 38 178 199 57 61 107 112 111 112 3 0
26 -18 51 -40z m3360 2 c19 -21 84 -92 143 -157 l108 -118 -33 -27 c-18 -15
-49 -42 -68 -59 -47 -41 -270 -204 -274 -200 -1 2 -27 42 -58 89 -30 47 -82
126 -115 176 -58 88 -60 92 -40 105 10 8 25 19 31 24 6 6 27 21 46 32 19 12
47 33 62 45 15 13 40 33 55 45 15 12 44 36 63 53 19 16 37 30 40 30 2 0 20
-17 40 -38z m-2530 -477 c52 -18 115 -38 140 -45 l46 -13 -34 -126 c-18 -69
-35 -135 -37 -146 -2 -11 -10 -46 -19 -78 -9 -32 -16 -60 -16 -62 0 -5 -22 0
-105 25 -91 27 -86 25 -118 38 -16 7 -31 12 -35 12 -4 0 -48 16 -98 36 l-92
37 19 43 c10 24 28 65 40 91 38 87 51 117 80 181 16 35 29 67 29 72 0 5 24 0
53 -12 28 -11 95 -35 147 -53z m1880 -110 c40 -93 77 -174 82 -180 4 -5 8 -15
8 -21 0 -18 -279 -125 -365 -140 -16 -3 -34 -9 -40 -13 -30 -22 -41 -4 -73
124 -47 183 -71 280 -69 281 1 1 56 18 122 39 66 20 126 42 133 47 6 6 12 8
12 5 0 -3 24 5 53 18 28 12 55 20 58 17 3 -4 38 -83 79 -177z"/>
</g>
</svg>
